<mxfile host="app.diagrams.net" modified="2022-10-26T09:49:29.620Z" agent="5.0 (Windows NT 10.0; Win64; x64) AppleWebKit/537.36 (KHTML, like Gecko) Chrome/106.0.0.0 Safari/537.36" etag="UdKwlnybqBsV-o6KlaHj" version="20.2.7" type="github">
  <diagram id="G9yAzlsVScRHqYVT1LTl" name="第 1 页">
    <mxGraphModel dx="1038" dy="491" grid="0" gridSize="10" guides="1" tooltips="1" connect="1" arrows="1" fold="1" page="1" pageScale="1" pageWidth="4681" pageHeight="3300" math="0" shadow="0">
      <root>
        <mxCell id="0" />
        <mxCell id="1" parent="0" />
        <mxCell id="w1FqssfnEPfsucPKbT6S-2" value="&lt;span&gt;智慧港口岸艇协同系统&lt;/span&gt;" style="rounded=1;whiteSpace=wrap;html=1;" parent="1" vertex="1">
          <mxGeometry x="582" y="968" width="162" height="50" as="geometry" />
        </mxCell>
        <mxCell id="w1FqssfnEPfsucPKbT6S-4" value="" style="strokeWidth=2;html=1;shape=mxgraph.flowchart.annotation_2;align=left;labelPosition=right;pointerEvents=1;rotation=90;" parent="1" vertex="1">
          <mxGeometry x="636.5" y="708" width="53" height="673" as="geometry" />
        </mxCell>
        <mxCell id="w1FqssfnEPfsucPKbT6S-6" value="通信系统" style="rounded=1;whiteSpace=wrap;html=1;" parent="1" vertex="1">
          <mxGeometry x="271" y="1069" width="120" height="60" as="geometry" />
        </mxCell>
        <mxCell id="w1FqssfnEPfsucPKbT6S-11" value="控制系统" style="rounded=1;whiteSpace=wrap;html=1;" parent="1" vertex="1">
          <mxGeometry x="718" y="1073" width="120" height="60" as="geometry" />
        </mxCell>
        <mxCell id="w1FqssfnEPfsucPKbT6S-13" value="" style="line;strokeWidth=2;direction=south;html=1;" parent="1" vertex="1">
          <mxGeometry x="538.75" y="1044" width="10" height="31" as="geometry" />
        </mxCell>
        <mxCell id="w1FqssfnEPfsucPKbT6S-14" value="" style="line;strokeWidth=2;direction=south;html=1;" parent="1" vertex="1">
          <mxGeometry x="773" y="1046" width="10" height="27" as="geometry" />
        </mxCell>
        <mxCell id="w1FqssfnEPfsucPKbT6S-15" value="附属设备" style="rounded=1;whiteSpace=wrap;html=1;" parent="1" vertex="1">
          <mxGeometry x="933" y="1071.5" width="120" height="60" as="geometry" />
        </mxCell>
        <mxCell id="w1FqssfnEPfsucPKbT6S-16" value="" style="strokeWidth=2;html=1;shape=mxgraph.flowchart.annotation_2;align=left;labelPosition=right;pointerEvents=1;rotation=90;" parent="1" vertex="1">
          <mxGeometry x="316.62" y="1038.62" width="23.75" height="204" as="geometry" />
        </mxCell>
        <mxCell id="w1FqssfnEPfsucPKbT6S-28" value="艇端obu" style="rounded=0;whiteSpace=wrap;html=1;" parent="1" vertex="1">
          <mxGeometry x="203" y="1151" width="42" height="51" as="geometry" />
        </mxCell>
        <mxCell id="w1FqssfnEPfsucPKbT6S-31" value="艇载&lt;br&gt;蓄电池" style="rounded=0;whiteSpace=wrap;html=1;" parent="1" vertex="1">
          <mxGeometry x="300" y="1151" width="62" height="48.5" as="geometry" />
        </mxCell>
        <mxCell id="w1FqssfnEPfsucPKbT6S-38" value="......" style="rounded=0;whiteSpace=wrap;html=1;" parent="1" vertex="1">
          <mxGeometry x="421" y="1151" width="40" height="51.5" as="geometry" />
        </mxCell>
        <mxCell id="w1FqssfnEPfsucPKbT6S-41" value="" style="line;strokeWidth=2;direction=south;html=1;" parent="1" vertex="1">
          <mxGeometry x="266" y="1142" width="10" height="12" as="geometry" />
        </mxCell>
        <mxCell id="w1FqssfnEPfsucPKbT6S-42" value="" style="line;strokeWidth=2;direction=south;html=1;" parent="1" vertex="1">
          <mxGeometry x="323.49" y="1139" width="10" height="12" as="geometry" />
        </mxCell>
        <mxCell id="w1FqssfnEPfsucPKbT6S-29" value="岸基端rsu" style="rounded=0;whiteSpace=wrap;html=1;" parent="1" vertex="1">
          <mxGeometry x="251" y="1151" width="40" height="51.5" as="geometry" />
        </mxCell>
        <mxCell id="w1FqssfnEPfsucPKbT6S-43" value="" style="line;strokeWidth=2;direction=south;html=1;" parent="1" vertex="1">
          <mxGeometry x="387" y="1142" width="10" height="22" as="geometry" />
        </mxCell>
        <mxCell id="w1FqssfnEPfsucPKbT6S-37" value="链路监控软件" style="rounded=0;whiteSpace=wrap;html=1;" parent="1" vertex="1">
          <mxGeometry x="372" y="1151" width="40" height="51.5" as="geometry" />
        </mxCell>
        <mxCell id="w1FqssfnEPfsucPKbT6S-7" value="感知系统" style="rounded=1;whiteSpace=wrap;html=1;" parent="1" vertex="1">
          <mxGeometry x="477.69" y="1069" width="133" height="65" as="geometry" />
        </mxCell>
        <mxCell id="w1FqssfnEPfsucPKbT6S-44" value="" style="strokeWidth=2;html=1;shape=mxgraph.flowchart.annotation_2;align=left;labelPosition=right;pointerEvents=1;rotation=90;" parent="1" vertex="1">
          <mxGeometry x="549.11" y="1061" width="19.89" height="165.5" as="geometry" />
        </mxCell>
        <mxCell id="w1FqssfnEPfsucPKbT6S-47" value="......" style="rounded=0;whiteSpace=wrap;html=1;" parent="1" vertex="1">
          <mxGeometry x="622" y="1150.5" width="35" height="52.5" as="geometry" />
        </mxCell>
        <mxCell id="w1FqssfnEPfsucPKbT6S-48" value="" style="line;strokeWidth=2;direction=south;html=1;" parent="1" vertex="1">
          <mxGeometry x="528.75" y="1144.38" width="10" height="12" as="geometry" />
        </mxCell>
        <mxCell id="w1FqssfnEPfsucPKbT6S-49" value="" style="line;strokeWidth=2;direction=south;html=1;" parent="1" vertex="1">
          <mxGeometry x="582.5" y="1144.38" width="10" height="12" as="geometry" />
        </mxCell>
        <mxCell id="w1FqssfnEPfsucPKbT6S-50" value="32线激光雷达" style="rounded=0;whiteSpace=wrap;html=1;" parent="1" vertex="1">
          <mxGeometry x="468" y="1151" width="40" height="51.5" as="geometry" />
        </mxCell>
        <mxCell id="w1FqssfnEPfsucPKbT6S-57" value="相机" style="rounded=0;whiteSpace=wrap;html=1;" parent="1" vertex="1">
          <mxGeometry x="517" y="1150.5" width="40" height="51.5" as="geometry" />
        </mxCell>
        <mxCell id="w1FqssfnEPfsucPKbT6S-59" value="相机" style="rounded=0;whiteSpace=wrap;html=1;" parent="1" vertex="1">
          <mxGeometry x="569" y="1151" width="40" height="51.5" as="geometry" />
        </mxCell>
        <mxCell id="w1FqssfnEPfsucPKbT6S-60" value="" style="strokeWidth=2;html=1;shape=mxgraph.flowchart.annotation_2;align=left;labelPosition=right;pointerEvents=1;rotation=90;" parent="1" vertex="1">
          <mxGeometry x="770.61" y="1061" width="19.89" height="165.5" as="geometry" />
        </mxCell>
        <mxCell id="w1FqssfnEPfsucPKbT6S-61" value="......" style="rounded=0;whiteSpace=wrap;html=1;" parent="1" vertex="1">
          <mxGeometry x="843.5" y="1150.5" width="35" height="52.5" as="geometry" />
        </mxCell>
        <mxCell id="w1FqssfnEPfsucPKbT6S-62" value="" style="line;strokeWidth=2;direction=south;html=1;" parent="1" vertex="1">
          <mxGeometry x="750.25" y="1144.38" width="10" height="12" as="geometry" />
        </mxCell>
        <mxCell id="w1FqssfnEPfsucPKbT6S-63" value="" style="line;strokeWidth=2;direction=south;html=1;" parent="1" vertex="1">
          <mxGeometry x="804" y="1144.38" width="10" height="12" as="geometry" />
        </mxCell>
        <mxCell id="w1FqssfnEPfsucPKbT6S-64" value="数据控制" style="rounded=0;whiteSpace=wrap;html=1;" parent="1" vertex="1">
          <mxGeometry x="678" y="1151" width="40" height="51.5" as="geometry" />
        </mxCell>
        <mxCell id="w1FqssfnEPfsucPKbT6S-65" value="无人艇控制" style="rounded=0;whiteSpace=wrap;html=1;" parent="1" vertex="1">
          <mxGeometry x="735.25" y="1151.5" width="40" height="51.5" as="geometry" />
        </mxCell>
        <mxCell id="w1FqssfnEPfsucPKbT6S-66" value="终端处理单元" style="rounded=0;whiteSpace=wrap;html=1;" parent="1" vertex="1">
          <mxGeometry x="790.5" y="1151.5" width="40" height="51.5" as="geometry" />
        </mxCell>
      </root>
    </mxGraphModel>
  </diagram>
</mxfile>
